<?xml version="1.0" encoding="utf-8"?>
<!-- Generator: Adobe Illustrator 27.5.0, SVG Export Plug-In . SVG Version: 6.00 Build 0)  -->
<svg version="1.1" id="Calque_1" xmlns="http://www.w3.org/2000/svg" xmlns:xlink="http://www.w3.org/1999/xlink" x="0px" y="0px"
	 viewBox="0 0 600 600" style="enable-background:new 0 0 600 600;" xml:space="preserve">
<style type="text/css">
	.st0{fill:#294899;}
	.st1{stroke:#000000;stroke-miterlimit:10;}
</style>
<path d="M221.1,387.3c2.5,17.4,7.3,30.4,14.5,39c13.2,15.7,35.8,23.5,67.8,23.5c19.2,0,34.7-2.1,46.7-6.2c22.7-7.9,34-22.6,34-44.2
	c0-12.6-5.6-22.3-16.7-29.2c-11.1-6.7-28.7-12.7-52.9-17.8l-41.2-9c-40.5-9-68.3-18.7-83.5-29.2c-25.7-17.6-38.5-45-38.5-82.4
	c0-34.1,12.5-62.4,37.6-85c25.1-22.6,62-33.8,110.6-33.8c40.6,0,75.2,10.6,103.9,31.9c28.7,21.3,43.7,52.1,45.1,92.6h-76.4
	c-1.4-22.9-11.7-39.2-30.7-48.8c-12.7-6.4-28.5-9.6-47.4-9.6c-21,0-37.8,4.1-50.3,12.4s-18.8,19.8-18.8,34.6
	c0,13.6,6.2,23.8,18.5,30.5c7.9,4.5,24.8,9.7,50.6,15.8l66.8,15.8c29.3,6.9,51.2,16.1,65.8,27.6c22.7,17.9,34,43.8,34,77.7
	c0,34.8-13.4,63.7-40.3,86.6c-26.9,23-64.9,34.5-113.9,34.5c-50.1,0-89.5-11.3-118.3-34c-28.7-22.6-43.1-53.8-43.1-93.4H221.1z"/>
<g>
	<path d="M298.7,201.4h13.6v45.3h-8.8V216c0-0.9,0-2.1,0-3.7c0-1.6,0-2.8,0-3.7l-8.6,38h-9.2l-8.5-38c0,0.9,0,2.1,0,3.7
		c0,1.6,0,2.8,0,3.7v30.6h-8.8v-45.3h13.8l8.2,35.6L298.7,201.4z"/>
	<g>
		<path d="M336.2,209.4h-23.9v9.6h22v7.9h-22v11.6h25.1v8.1H303v-45.3h33.2V209.4z"/>
	</g>
	<rect x="302.9" y="201.3" class="st0" width="9.5" height="45.4"/>
</g>
<line class="st1" x1="205.1" y1="531.2" x2="400.8" y2="531.2"/>
</svg>
